<svg width="280" height="340" viewBox="0 0 280 340" fill="none" xmlns="http://www.w3.org/2000/svg">
<g clip-path="url(#clip0_1_44)">
<path d="M240 0H40C17.9086 0 0 17.9086 0 40V300C0 322.091 17.9086 340 40 340H240C262.091 340 280 322.091 280 300V40C280 17.9086 262.091 0 240 0Z" fill="white"/>
<path d="M240 15H40C26.1929 15 15 26.1929 15 40V300C15 313.807 26.1929 325 40 325H240C253.807 325 265 313.807 265 300V40C265 26.1929 253.807 15 240 15Z" fill="#7C86FF"/>
<path d="M140 87L166 142L226 150L182 192L193 252L140 222L87 252L98 192L54 150L114 142L140 87Z" fill="#C6D2FF" stroke="#C6D2FF" stroke-width="8" stroke-linejoin="round"/>
<path d="M84 38C84 62 92 70 116 70C92 70 84 78 84 102C84 78 76 70 52 70C76 70 84 62 84 38Z" fill="#C6D2FF"/>
<path d="M59 102C59 114 63 118 75 118C63 118 59 122 59 134C59 122 55 118 43 118C55 118 59 114 59 102Z" fill="#C6D2FF"/>
<path d="M59 244C59 260.5 64.5 266 81 266C64.5 266 59 271.5 59 288C59 271.5 53.5 266 37 266C53.5 266 59 260.5 59 244Z" fill="#C6D2FF"/>
<path d="M184 38C184 53 189 58 204 58C189 58 184 63 184 78C184 63 179 58 164 58C179 58 184 53 184 38Z" fill="#C6D2FF"/>
<path d="M208 78C208 97.5 214.5 104 234 104C214.5 104 208 110.5 208 130C208 110.5 201.5 104 182 104C201.5 104 208 97.5 208 78Z" fill="#C6D2FF"/>
<path d="M214 189C214 201 218 205 230 205C218 205 214 209 214 221C214 209 210 205 198 205C210 205 214 201 214 189Z" fill="#C6D2FF"/>
<path d="M206 251C206 272 213 279 234 279C213 279 206 286 206 307C206 286 199 279 178 279C199 279 206 272 206 251Z" fill="#C6D2FF"/>
</g>
<defs>
<clipPath id="clip0_1_44">
<rect width="280" height="340" fill="white"/>
</clipPath>
</defs>
</svg>
