<svg width="512" height="512" viewBox="0 0 512 512" xmlns="http://www.w3.org/2000/svg">
  <rect x="0" y="0" width="512" height="512" rx="120" ry="120" fill="#f0f4fe"/>
  
  <rect x="116" y="100" width="280" height="340" rx="40" ry="40" fill="#ffffff"/>
  
  <rect x="131" y="115" width="250" height="310" rx="25" ry="25" fill="#3a5bcf"/>
  
  <g fill="#8fc7ff">
    <path d="M256 195 L282 250 L342 258 L298 300 L309 360 L256 330 L203 360 L214 300 L170 258 L230 250 Z" stroke="#8fc7ff" stroke-width="8" stroke-linejoin="round"/>
    
    <defs>
      <path id="sparkle" d="M0,-20 C0,-5 5,0 20,0 C5,0 0,5 0,20 C0,5 -5,0 -20,0 C-5,0 0,-5 0,-20 Z" />
    </defs>
    
    <use href="#sparkle" transform="translate(200, 170) scale(1.6)"/> <use href="#sparkle" transform="translate(175, 230) scale(0.8)"/> <use href="#sparkle" transform="translate(190, 345) scale(1.1)"/> <use href="#sparkle" transform="translate(290, 200) scale(1.0)"/> <use href="#sparkle" transform="translate(320, 220) scale(1.3)"/> <use href="#sparkle" transform="translate(330, 305) scale(0.8)"/> <use href="#sparkle" transform="translate(310, 350) scale(1.4)"/> </g>
</svg>